<?xml version="1.0" encoding="utf-8"?>
<!-- Generator: Adobe Illustrator 13.0.0, SVG Export Plug-In  -->
<!DOCTYPE svg PUBLIC "-//W3C//DTD SVG 1.1//EN" "http://www.w3.org/Graphics/SVG/1.1/DTD/svg11.dtd" [
	<!ENTITY ns_flows "http://ns.adobe.com/Flows/1.0/">
]>
<svg version="1.1"
	 xmlns="http://www.w3.org/2000/svg" xmlns:xlink="http://www.w3.org/1999/xlink" xmlns:a="http://ns.adobe.com/AdobeSVGViewerExtensions/3.0/"
	 x="0px" y="0px" width="130px" height="30px" viewBox="-1.632 -5.099 130 30" enable-background="new -1.632 -5.099 130 30"
	 xml:space="preserve">
<defs>
</defs>
<path fill="#F47564" d="M48.328,17.024c-0.098,0.334-0.391,0.502-0.878,0.502c-0.502,0-0.857-0.125-1.067-0.376
	c-0.083-0.042-0.272-0.119-0.565-0.23c-3.849-1.534-7.063-3.402-9.643-5.606c-0.154,1.841-0.244,3.326-0.272,4.456
	c0,0.154,0.045,0.37,0.136,0.648c0.09,0.279,0.136,0.495,0.136,0.648c0,0.167-0.042,0.335-0.125,0.502
	c-0.223,0.362-0.558,0.543-1.004,0.543c-0.335,0-0.607-0.112-0.816-0.334c-0.154-0.195-0.161-1.199-0.021-3.012
	c0.083-1.088,0.202-2.706,0.355-4.853c-0.153-0.083-0.23-0.223-0.23-0.418c0-0.097,0.083-0.202,0.251-0.314
	c0.181-1.868,0.251-2.963,0.209-3.284c-0.014-0.167-0.021-0.321-0.021-0.46c0-0.516,0.111-0.913,0.334-1.192
	c0.223-0.279,0.488-0.418,0.795-0.418c0.376,0,0.676,0.182,0.899,0.544c2.05-0.892,3.87-1.339,5.46-1.339
	c1.534,0,2.343,0.558,2.426,1.674c0.139,1.688-2.266,3.535-7.217,5.543c1.004,0.907,2.594,1.959,4.77,3.159
	c2.287,1.283,3.933,1.987,4.937,2.113c0.251,0.042,0.495,0.14,0.732,0.293c0.32,0.223,0.481,0.509,0.481,0.857
	C48.391,16.78,48.37,16.898,48.328,17.024z M42.889,4.87c0-0.153-0.244-0.23-0.732-0.23c-0.697,0-1.576,0.133-2.636,0.397
	c-1.116,0.279-1.833,0.565-2.154,0.858c-0.14,0.125-0.293,0.174-0.46,0.146c-0.111,0.614-0.258,1.527-0.439,2.741
	c0.976-0.237,2.217-0.746,3.723-1.527C41.99,6.307,42.889,5.512,42.889,4.87z"/>
<path fill="#F47564" d="M55.775,12.715c0.279,0.195,0.418,0.439,0.418,0.732c0,0.405-0.203,0.739-0.607,1.004
	c-0.014,0.014-0.321,0.251-0.92,0.711c-2.134,1.631-3.821,2.447-5.062,2.447c-0.907,0-1.702-0.453-2.385-1.359
	c-0.642-0.837-0.962-1.729-0.962-2.678c0-1.367,0.655-2.531,1.966-3.493c1.185-0.879,2.482-1.318,3.891-1.318
	c0.795,0,1.471,0.16,2.029,0.481c0.125,0.07,0.188,0.182,0.188,0.334c0,0.377-0.321,0.886-0.962,1.527
	c-0.642,0.642-1.29,1.102-1.945,1.38c-0.753,0.307-1.89,0.579-3.41,0.816c-0.083,0.572,0.056,1.158,0.418,1.757
	c0.39,0.655,0.871,0.969,1.443,0.941c0.599-0.014,1.499-0.418,2.698-1.213c0.976-0.642,1.583-1.102,1.82-1.381
	c0.321-0.571,0.627-0.857,0.92-0.857C55.454,12.547,55.607,12.603,55.775,12.715z M52.072,10.309
	c-0.544-0.028-1.171,0.119-1.883,0.439c-0.502,0.223-0.997,0.564-1.485,1.025c0.418-0.07,1.053-0.237,1.903-0.502
	C51.235,10.979,51.724,10.658,52.072,10.309z"/>
<path fill="#F47564" d="M63.138,16.292c0.056,0.475-0.467,1.081-1.569,1.82c-1.004,0.683-1.778,1.053-2.322,1.109
	c-0.251,0.028-0.492-0.039-0.722-0.199c-0.23-0.161-0.345-0.359-0.345-0.596c0-0.167,0.063-0.334,0.188-0.502
	c0.07-0.112,0.6-0.384,1.59-0.816c0.907-0.404,1.346-0.69,1.318-0.857c-0.028-0.14-0.425-0.328-1.192-0.565
	c-0.976-0.293-1.701-0.593-2.175-0.899c-0.795-0.516-1.234-1.185-1.318-2.008c-0.112-1.046,0.258-2.113,1.109-3.201
	c0.53-0.669,1.394-1.478,2.594-2.426c0.279-0.223,0.62-0.334,1.025-0.334c0.418,0,0.802,0.101,1.15,0.303s0.544,0.422,0.586,0.659
	c0.069,0.516-0.182,0.774-0.753,0.774c-0.223,0-0.467-0.056-0.732-0.167c-0.251,0-0.627,0.23-1.129,0.69
	c-0.335,0.335-0.677,0.663-1.025,0.983c-0.446,0.376-0.774,0.844-0.983,1.401c-0.167,0.446-0.223,0.816-0.167,1.109
	c0.084,0.544,0.53,0.976,1.339,1.297c0.739,0.251,1.471,0.509,2.196,0.774C62.594,15.016,63.04,15.567,63.138,16.292z"/>
<path fill="#F47564" d="M72.132,9.368c-0.098,0-0.241-0.01-0.429-0.031c-0.188-0.021-0.303-0.031-0.345-0.031
	c-0.656,0-1.611,0.132-2.866,0.397c-0.307,2.426-0.46,4.351-0.46,5.773c0,0.586,0.028,1.019,0.084,1.297
	c0.042,0.139,0.063,0.272,0.063,0.397c0,0.53-0.251,0.794-0.753,0.794c-0.307,0-0.589-0.129-0.847-0.387
	c-0.258-0.258-0.374-0.603-0.345-1.036c0-0.725,0.077-2.126,0.23-4.205c0.056-0.474,0.146-1.227,0.272-2.259
	c-0.474,0.125-0.851,0.265-1.129,0.418c-0.014,0.014-0.349,0.237-1.004,0.669c-0.209,0.14-0.397,0.188-0.564,0.146
	c-0.586-0.139-0.879-0.439-0.879-0.899c0-0.279,0.125-0.516,0.377-0.711c0.613-0.488,1.771-0.948,3.472-1.381
	c0.181-1.143,0.334-2.356,0.46-3.64c-0.014,0.153-0.021-0.146-0.021-0.899c0-0.711,0.258-1.067,0.774-1.067
	c0.627,0,0.941,0.627,0.941,1.882c0,0.488-0.14,1.625-0.418,3.41c1.087-0.167,2.084-0.216,2.991-0.146
	c0.781,0.056,1.171,0.334,1.171,0.836C72.906,9.131,72.648,9.354,72.132,9.368z"/>
<path fill="#F47564" d="M79.496,12.15c-0.182,1.924-0.488,4.965-0.92,9.12c-0.014,0.028-0.112,0.739-0.293,2.134
	c-0.195,1.325-0.293,1.994-0.293,2.008c0.209,0.334,0.314,0.648,0.314,0.941c0,0.292-0.104,0.523-0.314,0.69
	c-0.209,0.167-0.453,0.251-0.732,0.251c-0.293,0-0.541-0.083-0.743-0.251c-0.202-0.167-0.303-0.412-0.303-0.732
	c0-0.447,0.132-0.767,0.397-0.962c0.042-0.767,0.216-2.831,0.523-6.192c0.153-1.478,0.258-2.538,0.314-3.179
	c0.069-1.004,0.125-2.071,0.167-3.201c-1.409,1.59-2.126,2.399-2.154,2.427c-0.949,0.99-1.632,1.478-2.05,1.464
	c-0.6,0-0.899-0.558-0.899-1.673c0-0.348,0.167-1.862,0.502-4.539c0.098-0.711,0.167-1.144,0.209-1.297
	c0.153-0.558,0.418-0.837,0.795-0.837c0.223,0,0.45,0.091,0.68,0.272s0.352,0.376,0.366,0.585c0.014,0.209-0.133,1.004-0.439,2.385
	c-0.307,1.381-0.46,2.217-0.46,2.51c0,0.098,0.014,0.161,0.042,0.188c0.056,0.056,0.502-0.432,1.339-1.464
	c1.144-1.422,1.771-2.196,1.883-2.322c0.139-0.223,0.272-0.439,0.397-0.648c0.181-0.279,0.397-0.418,0.648-0.418
	c0.111,0,0.23,0.021,0.355,0.063c0.209,0.084,0.376,0.338,0.502,0.764s0.188,0.882,0.188,1.37
	C79.517,11.801,79.509,11.982,79.496,12.15z"/>
<path fill="#F47564" d="M86.022,17.358c-0.098,0.125-0.237,0.188-0.418,0.188c-0.376,0-0.635-0.167-0.774-0.502
	c-0.92,0.53-1.729,0.794-2.427,0.794c-0.53,0-0.958-0.171-1.286-0.512c-0.328-0.342-0.492-0.785-0.492-1.329
	c0-0.753,0.289-1.492,0.868-2.217c0.579-0.725,1.203-1.122,1.872-1.192c0.781-0.083,1.401,0.328,1.862,1.234
	c0.056-0.334,0.083-0.648,0.083-0.941c0-0.739-0.181-1.457-0.544-2.154c-0.251-0.46-0.614-0.69-1.087-0.69
	c-0.251,0-0.499,0.063-0.743,0.188c-0.244,0.125-0.374,0.223-0.387,0.292c-0.028,0.237-0.188,0.356-0.481,0.356
	c-0.53,0-0.809-0.237-0.837-0.711c-0.042-0.46,0.23-0.865,0.816-1.213c0.544-0.307,1.15-0.46,1.82-0.46
	c0.474,0,0.872,0.091,1.192,0.272c1.269,0.753,1.904,2.113,1.904,4.079c0,0.906-0.133,1.875-0.397,2.907
	C86.37,16.515,86.189,17.052,86.022,17.358z M84.369,15.455c-0.321-0.865-0.6-1.276-0.836-1.234
	c-0.391,0.07-0.722,0.275-0.994,0.617s-0.408,0.715-0.408,1.119c0,0.265,0.125,0.397,0.376,0.397
	C82.94,16.354,83.561,16.055,84.369,15.455z"/>
<path fill="#F47564" d="M95.519,11.104c0.083,0.181,0.125,0.384,0.125,0.606c0,1.171-1.171,2.811-3.514,4.916
	c-0.279,0.237-0.642,0.579-1.088,1.025c-0.182,0.251-0.405,0.376-0.669,0.376c-0.223,0-0.418-0.083-0.585-0.251
	c-0.167-0.167-0.258-0.383-0.272-0.648c-0.335-0.07-0.558-0.216-0.669-0.439c-0.084-0.223-0.084-1.206,0-2.949
	c0.069-1.492,0.139-2.51,0.209-3.054c-0.195-0.195-0.293-0.404-0.293-0.627c0-0.376,0.202-0.683,0.607-0.92
	c0.404-1.632,0.606-2.971,0.606-4.017c0-0.097-0.024-0.24-0.073-0.429c-0.049-0.188-0.081-0.324-0.094-0.408
	c-0.042-0.627,0.181-0.941,0.669-0.941c0.307,0,0.579,0.154,0.816,0.46c0.265,0.363,0.397,0.844,0.397,1.443
	c0,0.502-0.077,1.102-0.23,1.799c-0.125,0.585-0.258,1.179-0.397,1.778C93.406,8.88,94.891,9.64,95.519,11.104z M90.77,10.497
	c-0.237,1.13-0.355,2.288-0.355,3.473c0,0.669,0.035,1.339,0.104,2.008c0.781-0.6,1.471-1.22,2.071-1.862
	c0.878-0.948,1.318-1.701,1.318-2.259c0-0.516-0.418-0.899-1.255-1.15C92.011,10.525,91.383,10.456,90.77,10.497z"/>
<path fill="#F47564" d="M101.772,9.431c0.753,0.572,1.206,1.401,1.36,2.489c0.028,0.237,0.042,0.474,0.042,0.711
	c0,1.381-0.537,2.58-1.611,3.598c-0.962,0.907-1.966,1.359-3.012,1.359c-0.335,0-0.627-0.07-0.878-0.209
	c-0.418-0.209-0.781-0.593-1.088-1.15c-0.321-0.614-0.481-1.269-0.481-1.966c0-0.586,0.118-1.15,0.355-1.694
	c1.06-2.398,2.245-3.647,3.556-3.745C100.601,8.768,101.187,8.97,101.772,9.431z M97.861,13.572
	c-0.056,0.195-0.083,0.418-0.083,0.669c0,0.376,0.069,0.732,0.209,1.067c0.195,0.418,0.453,0.627,0.774,0.627
	c0.363,0,0.788-0.178,1.276-0.533c0.488-0.356,0.822-0.722,1.004-1.099c0.362-0.725,0.544-1.359,0.544-1.903
	c0-0.376-0.077-0.732-0.23-1.067c-0.209-0.46-0.481-0.732-0.816-0.816C99.353,10.825,98.46,11.843,97.861,13.572z"/>
<path fill="#F47564" d="M109.617,17.358c-0.098,0.125-0.237,0.188-0.418,0.188c-0.376,0-0.635-0.167-0.774-0.502
	c-0.92,0.53-1.729,0.794-2.427,0.794c-0.53,0-0.958-0.171-1.286-0.512c-0.328-0.342-0.492-0.785-0.492-1.329
	c0-0.753,0.289-1.492,0.868-2.217c0.579-0.725,1.203-1.122,1.872-1.192c0.781-0.083,1.401,0.328,1.862,1.234
	c0.056-0.334,0.083-0.648,0.083-0.941c0-0.739-0.181-1.457-0.544-2.154c-0.251-0.46-0.614-0.69-1.087-0.69
	c-0.251,0-0.499,0.063-0.743,0.188c-0.244,0.125-0.374,0.223-0.387,0.292c-0.028,0.237-0.188,0.356-0.481,0.356
	c-0.53,0-0.809-0.237-0.837-0.711c-0.042-0.46,0.23-0.865,0.816-1.213c0.544-0.307,1.15-0.46,1.82-0.46
	c0.474,0,0.872,0.091,1.192,0.272c1.269,0.753,1.904,2.113,1.904,4.079c0,0.906-0.133,1.875-0.397,2.907
	C109.965,16.515,109.785,17.052,109.617,17.358z M107.964,15.455c-0.321-0.865-0.6-1.276-0.836-1.234
	c-0.391,0.07-0.722,0.275-0.994,0.617s-0.408,0.715-0.408,1.119c0,0.265,0.125,0.397,0.376,0.397
	C106.535,16.354,107.156,16.055,107.964,15.455z"/>
<path fill="#F47564" d="M120.243,8.636c0.098,0.042,0.202,0.15,0.314,0.324c0.111,0.174,0.167,0.352,0.167,0.533
	c0,0.209-0.091,0.38-0.272,0.513c-0.182,0.132-0.377,0.199-0.586,0.199c-0.098,0-0.23-0.028-0.397-0.084
	c-0.167-0.055-0.293-0.083-0.376-0.083c-0.125,0-0.251,0.042-0.376,0.125c-1.171,0.656-2.503,2.134-3.996,4.435
	c-0.251,0.363-0.415,0.917-0.491,1.663c-0.077,0.746-0.164,1.175-0.262,1.287c-0.167,0.223-0.397,0.334-0.69,0.334
	c-0.321,0-0.593-0.112-0.815-0.334c-0.154-0.139-0.237-0.363-0.251-0.669c0-0.195,0.021-0.432,0.063-0.711
	c0.237-1.269,0.355-2.454,0.355-3.556c0-1.227-0.153-2.259-0.46-3.096c-0.028-0.07-0.042-0.146-0.042-0.23
	c0-0.209,0.098-0.383,0.293-0.523c0.195-0.139,0.418-0.209,0.669-0.209c0.265,0,0.488,0.084,0.669,0.251
	c0.307,0.279,0.474,0.991,0.502,2.134c0.014,0.544,0.021,1.053,0.021,1.527c1.52-1.896,2.733-3.103,3.64-3.619
	c0.432-0.251,0.878-0.376,1.339-0.376C119.581,8.468,119.909,8.524,120.243,8.636z"/>
<path fill="#F47564" d="M128.903,4.661c-0.083,0.195-0.23,1.269-0.439,3.221c-0.251,2.106-0.412,3.835-0.481,5.188
	c0.6,0.181,0.899,0.453,0.899,0.816c0,0.502-0.412,0.899-1.234,1.192c0.014,0.46-0.014,0.893-0.083,1.297
	c-0.112,0.627-0.321,0.914-0.627,0.857c-0.627-0.083-0.983-0.474-1.067-1.171c-1.924,1.171-3.521,1.757-4.79,1.757
	c-0.795,0-1.381-0.255-1.757-0.764s-0.565-1.077-0.565-1.705c0-1.255,0.627-2.496,1.883-3.723c1.185-1.171,2.28-1.757,3.284-1.757
	c1.046,0,1.882,0.53,2.51,1.59c0.502-4.337,0.725-6.617,0.669-6.84C127.034,4.327,127,4.062,127,3.824
	c0-0.641,0.244-0.962,0.732-0.962c0.307,0,0.592,0.129,0.857,0.387c0.265,0.258,0.397,0.568,0.397,0.931
	C128.987,4.347,128.959,4.508,128.903,4.661z M125.577,14.221c-0.307-1.827-0.872-2.74-1.694-2.74c-0.725,0-1.475,0.478-2.249,1.433
	s-1.161,1.795-1.161,2.521c0,0.544,0.265,0.816,0.795,0.816c0.53,0,1.325-0.293,2.385-0.879
	C124.294,14.995,124.936,14.611,125.577,14.221z"/>
<path fill="none" stroke="#F47564" stroke-width="3" d="M29.074,18.88c0,0.554-0.511,1.003-1.141,1.003H2.642
	c-0.631,0-1.142-0.449-1.142-1.003V2.502C1.5,1.949,2.011,1.5,2.642,1.5h25.292c0.63,0,1.141,0.449,1.141,1.002V18.88z"/>
<line fill="none" stroke="#F47564" x1="7.526" y1="15.313" x2="13.291" y2="7.613"/>
<line fill="none" stroke="#F47564" x1="17.949" y1="12.871" x2="23.75" y2="6.227"/>
<line fill="none" stroke="#F47564" x1="18.543" y1="12.989" x2="12.855" y2="7.459"/>
</svg>
